<mxfile host="app.diagrams.net" modified="2022-04-24T13:02:27.172Z" agent="5.0 (Windows)" etag="hOmB0bg9cI6SwQvDzj2O" version="17.4.5" type="github">
  <diagram id="Qnejic_ljDz9bXS0I6rU" name="Page-1">
    <mxGraphModel dx="2324" dy="975" grid="1" gridSize="10" guides="1" tooltips="1" connect="1" arrows="1" fold="1" page="1" pageScale="1" pageWidth="850" pageHeight="1100" math="0" shadow="0">
      <root>
        <mxCell id="0" />
        <mxCell id="1" parent="0" />
        <mxCell id="ZuxY4mzKr3RIMmNPdpkf-12" style="edgeStyle=orthogonalEdgeStyle;rounded=0;orthogonalLoop=1;jettySize=auto;html=1;entryX=0;entryY=0.75;entryDx=0;entryDy=0;startArrow=none;" edge="1" parent="1" source="ZuxY4mzKr3RIMmNPdpkf-31" target="ZuxY4mzKr3RIMmNPdpkf-2">
          <mxGeometry relative="1" as="geometry" />
        </mxCell>
        <mxCell id="ZuxY4mzKr3RIMmNPdpkf-13" style="edgeStyle=orthogonalEdgeStyle;rounded=0;orthogonalLoop=1;jettySize=auto;html=1;entryX=0;entryY=0.5;entryDx=0;entryDy=0;startArrow=none;" edge="1" parent="1" source="ZuxY4mzKr3RIMmNPdpkf-32" target="ZuxY4mzKr3RIMmNPdpkf-3">
          <mxGeometry relative="1" as="geometry" />
        </mxCell>
        <mxCell id="ZuxY4mzKr3RIMmNPdpkf-14" style="edgeStyle=orthogonalEdgeStyle;rounded=0;orthogonalLoop=1;jettySize=auto;html=1;entryX=0;entryY=0.5;entryDx=0;entryDy=0;startArrow=none;" edge="1" parent="1" source="ZuxY4mzKr3RIMmNPdpkf-33" target="ZuxY4mzKr3RIMmNPdpkf-4">
          <mxGeometry relative="1" as="geometry" />
        </mxCell>
        <mxCell id="ZuxY4mzKr3RIMmNPdpkf-1" value="BÄ‘" style="rounded=0;whiteSpace=wrap;html=1;" vertex="1" parent="1">
          <mxGeometry y="200" width="70" height="40" as="geometry" />
        </mxCell>
        <mxCell id="ZuxY4mzKr3RIMmNPdpkf-15" style="edgeStyle=orthogonalEdgeStyle;rounded=0;orthogonalLoop=1;jettySize=auto;html=1;entryX=0;entryY=0.5;entryDx=0;entryDy=0;startArrow=none;" edge="1" parent="1" source="ZuxY4mzKr3RIMmNPdpkf-34" target="ZuxY4mzKr3RIMmNPdpkf-6">
          <mxGeometry relative="1" as="geometry" />
        </mxCell>
        <mxCell id="ZuxY4mzKr3RIMmNPdpkf-16" style="edgeStyle=orthogonalEdgeStyle;rounded=0;orthogonalLoop=1;jettySize=auto;html=1;entryX=0;entryY=0.75;entryDx=0;entryDy=0;startArrow=none;" edge="1" parent="1" source="ZuxY4mzKr3RIMmNPdpkf-35" target="ZuxY4mzKr3RIMmNPdpkf-9">
          <mxGeometry relative="1" as="geometry" />
        </mxCell>
        <mxCell id="ZuxY4mzKr3RIMmNPdpkf-2" value="A" style="rounded=0;whiteSpace=wrap;html=1;" vertex="1" parent="1">
          <mxGeometry x="160" y="100" width="80" height="40" as="geometry" />
        </mxCell>
        <mxCell id="ZuxY4mzKr3RIMmNPdpkf-18" style="edgeStyle=orthogonalEdgeStyle;rounded=0;orthogonalLoop=1;jettySize=auto;html=1;startArrow=none;" edge="1" parent="1" source="ZuxY4mzKr3RIMmNPdpkf-84" target="ZuxY4mzKr3RIMmNPdpkf-10">
          <mxGeometry relative="1" as="geometry" />
        </mxCell>
        <mxCell id="ZuxY4mzKr3RIMmNPdpkf-22" style="edgeStyle=orthogonalEdgeStyle;rounded=0;orthogonalLoop=1;jettySize=auto;html=1;entryX=0;entryY=0.5;entryDx=0;entryDy=0;startArrow=none;" edge="1" parent="1" source="ZuxY4mzKr3RIMmNPdpkf-81" target="ZuxY4mzKr3RIMmNPdpkf-11">
          <mxGeometry relative="1" as="geometry" />
        </mxCell>
        <mxCell id="ZuxY4mzKr3RIMmNPdpkf-3" value="C" style="rounded=0;whiteSpace=wrap;html=1;" vertex="1" parent="1">
          <mxGeometry x="160" y="200" width="80" height="40" as="geometry" />
        </mxCell>
        <mxCell id="ZuxY4mzKr3RIMmNPdpkf-25" style="edgeStyle=orthogonalEdgeStyle;rounded=0;orthogonalLoop=1;jettySize=auto;html=1;entryX=0;entryY=0.5;entryDx=0;entryDy=0;startArrow=none;" edge="1" parent="1" source="ZuxY4mzKr3RIMmNPdpkf-40" target="ZuxY4mzKr3RIMmNPdpkf-23">
          <mxGeometry relative="1" as="geometry" />
        </mxCell>
        <mxCell id="ZuxY4mzKr3RIMmNPdpkf-4" value="D" style="rounded=0;whiteSpace=wrap;html=1;" vertex="1" parent="1">
          <mxGeometry x="170" y="420" width="80" height="40" as="geometry" />
        </mxCell>
        <mxCell id="ZuxY4mzKr3RIMmNPdpkf-17" style="edgeStyle=orthogonalEdgeStyle;rounded=0;orthogonalLoop=1;jettySize=auto;html=1;entryX=0;entryY=0.5;entryDx=0;entryDy=0;startArrow=none;" edge="1" parent="1" source="ZuxY4mzKr3RIMmNPdpkf-37" target="ZuxY4mzKr3RIMmNPdpkf-10">
          <mxGeometry relative="1" as="geometry" />
        </mxCell>
        <mxCell id="ZuxY4mzKr3RIMmNPdpkf-21" style="edgeStyle=orthogonalEdgeStyle;rounded=0;orthogonalLoop=1;jettySize=auto;html=1;startArrow=none;" edge="1" parent="1" source="ZuxY4mzKr3RIMmNPdpkf-66" target="ZuxY4mzKr3RIMmNPdpkf-11">
          <mxGeometry relative="1" as="geometry">
            <Array as="points">
              <mxPoint x="515" y="140" />
            </Array>
          </mxGeometry>
        </mxCell>
        <mxCell id="ZuxY4mzKr3RIMmNPdpkf-6" value="B" style="rounded=0;whiteSpace=wrap;html=1;" vertex="1" parent="1">
          <mxGeometry x="340" y="40" width="70" height="50" as="geometry" />
        </mxCell>
        <mxCell id="ZuxY4mzKr3RIMmNPdpkf-68" style="edgeStyle=orthogonalEdgeStyle;rounded=0;orthogonalLoop=1;jettySize=auto;html=1;entryX=0;entryY=1;entryDx=0;entryDy=0;startArrow=none;" edge="1" parent="1" source="ZuxY4mzKr3RIMmNPdpkf-69" target="ZuxY4mzKr3RIMmNPdpkf-23">
          <mxGeometry relative="1" as="geometry" />
        </mxCell>
        <mxCell id="ZuxY4mzKr3RIMmNPdpkf-9" value="G" style="rounded=0;whiteSpace=wrap;html=1;" vertex="1" parent="1">
          <mxGeometry x="350" y="130" width="70" height="50" as="geometry" />
        </mxCell>
        <mxCell id="ZuxY4mzKr3RIMmNPdpkf-24" style="edgeStyle=orthogonalEdgeStyle;rounded=0;orthogonalLoop=1;jettySize=auto;html=1;entryX=1;entryY=0.5;entryDx=0;entryDy=0;startArrow=none;" edge="1" parent="1" source="ZuxY4mzKr3RIMmNPdpkf-41" target="ZuxY4mzKr3RIMmNPdpkf-23">
          <mxGeometry relative="1" as="geometry" />
        </mxCell>
        <mxCell id="ZuxY4mzKr3RIMmNPdpkf-10" value="E" style="rounded=0;whiteSpace=wrap;html=1;" vertex="1" parent="1">
          <mxGeometry x="605" y="40" width="70" height="50" as="geometry" />
        </mxCell>
        <mxCell id="ZuxY4mzKr3RIMmNPdpkf-28" style="edgeStyle=orthogonalEdgeStyle;rounded=0;orthogonalLoop=1;jettySize=auto;html=1;entryX=0;entryY=0.5;entryDx=0;entryDy=0;startArrow=none;" edge="1" parent="1" source="ZuxY4mzKr3RIMmNPdpkf-43" target="ZuxY4mzKr3RIMmNPdpkf-27">
          <mxGeometry relative="1" as="geometry" />
        </mxCell>
        <mxCell id="ZuxY4mzKr3RIMmNPdpkf-11" value="F" style="rounded=0;whiteSpace=wrap;html=1;" vertex="1" parent="1">
          <mxGeometry x="480" y="250" width="70" height="50" as="geometry" />
        </mxCell>
        <mxCell id="ZuxY4mzKr3RIMmNPdpkf-29" style="edgeStyle=orthogonalEdgeStyle;rounded=0;orthogonalLoop=1;jettySize=auto;html=1;exitX=0.5;exitY=0;exitDx=0;exitDy=0;startArrow=none;" edge="1" parent="1" source="ZuxY4mzKr3RIMmNPdpkf-87" target="ZuxY4mzKr3RIMmNPdpkf-27">
          <mxGeometry relative="1" as="geometry" />
        </mxCell>
        <mxCell id="ZuxY4mzKr3RIMmNPdpkf-23" value="H" style="rounded=0;whiteSpace=wrap;html=1;" vertex="1" parent="1">
          <mxGeometry x="710" y="415" width="70" height="50" as="geometry" />
        </mxCell>
        <mxCell id="ZuxY4mzKr3RIMmNPdpkf-45" style="edgeStyle=orthogonalEdgeStyle;rounded=0;orthogonalLoop=1;jettySize=auto;html=1;startArrow=none;" edge="1" parent="1" source="ZuxY4mzKr3RIMmNPdpkf-71" target="ZuxY4mzKr3RIMmNPdpkf-30">
          <mxGeometry relative="1" as="geometry" />
        </mxCell>
        <mxCell id="ZuxY4mzKr3RIMmNPdpkf-27" value="I" style="rounded=0;whiteSpace=wrap;html=1;" vertex="1" parent="1">
          <mxGeometry x="710" y="250" width="70" height="50" as="geometry" />
        </mxCell>
        <mxCell id="ZuxY4mzKr3RIMmNPdpkf-30" value="KT" style="rounded=0;whiteSpace=wrap;html=1;" vertex="1" parent="1">
          <mxGeometry x="990" y="250" width="70" height="50" as="geometry" />
        </mxCell>
        <mxCell id="ZuxY4mzKr3RIMmNPdpkf-36" value="&lt;div&gt;4&lt;/div&gt;" style="text;html=1;align=center;verticalAlign=middle;resizable=0;points=[];autosize=1;strokeColor=none;fillColor=none;" vertex="1" parent="1">
          <mxGeometry x="530" y="130" width="20" height="20" as="geometry" />
        </mxCell>
        <mxCell id="ZuxY4mzKr3RIMmNPdpkf-43" value="24" style="text;html=1;align=center;verticalAlign=middle;resizable=0;points=[];autosize=1;strokeColor=none;fillColor=none;" vertex="1" parent="1">
          <mxGeometry x="640" y="265" width="30" height="20" as="geometry" />
        </mxCell>
        <mxCell id="ZuxY4mzKr3RIMmNPdpkf-46" value="" style="edgeStyle=orthogonalEdgeStyle;rounded=0;orthogonalLoop=1;jettySize=auto;html=1;entryX=0;entryY=0.5;entryDx=0;entryDy=0;endArrow=none;" edge="1" parent="1" source="ZuxY4mzKr3RIMmNPdpkf-11" target="ZuxY4mzKr3RIMmNPdpkf-43">
          <mxGeometry relative="1" as="geometry">
            <mxPoint x="550" y="275" as="sourcePoint" />
            <mxPoint x="820" y="195" as="targetPoint" />
          </mxGeometry>
        </mxCell>
        <mxCell id="ZuxY4mzKr3RIMmNPdpkf-40" value="12" style="text;html=1;align=center;verticalAlign=middle;resizable=0;points=[];autosize=1;strokeColor=none;fillColor=none;" vertex="1" parent="1">
          <mxGeometry x="470" y="430" width="30" height="20" as="geometry" />
        </mxCell>
        <mxCell id="ZuxY4mzKr3RIMmNPdpkf-47" value="" style="edgeStyle=orthogonalEdgeStyle;rounded=0;orthogonalLoop=1;jettySize=auto;html=1;entryX=0;entryY=0.5;entryDx=0;entryDy=0;endArrow=none;" edge="1" parent="1" source="ZuxY4mzKr3RIMmNPdpkf-4" target="ZuxY4mzKr3RIMmNPdpkf-40">
          <mxGeometry relative="1" as="geometry">
            <mxPoint x="240" y="320" as="sourcePoint" />
            <mxPoint x="750" y="450" as="targetPoint" />
          </mxGeometry>
        </mxCell>
        <mxCell id="ZuxY4mzKr3RIMmNPdpkf-31" value="0" style="text;html=1;align=center;verticalAlign=middle;resizable=0;points=[];autosize=1;strokeColor=none;fillColor=none;" vertex="1" parent="1">
          <mxGeometry x="130" y="120" width="20" height="20" as="geometry" />
        </mxCell>
        <mxCell id="ZuxY4mzKr3RIMmNPdpkf-48" value="" style="edgeStyle=orthogonalEdgeStyle;rounded=0;orthogonalLoop=1;jettySize=auto;html=1;entryX=0;entryY=0.75;entryDx=0;entryDy=0;endArrow=none;" edge="1" parent="1" source="ZuxY4mzKr3RIMmNPdpkf-1" target="ZuxY4mzKr3RIMmNPdpkf-31">
          <mxGeometry relative="1" as="geometry">
            <mxPoint x="70" y="220" as="sourcePoint" />
            <mxPoint x="160" y="130" as="targetPoint" />
          </mxGeometry>
        </mxCell>
        <mxCell id="ZuxY4mzKr3RIMmNPdpkf-32" value="0" style="text;html=1;align=center;verticalAlign=middle;resizable=0;points=[];autosize=1;strokeColor=none;fillColor=none;" vertex="1" parent="1">
          <mxGeometry x="120" y="210" width="20" height="20" as="geometry" />
        </mxCell>
        <mxCell id="ZuxY4mzKr3RIMmNPdpkf-49" value="" style="edgeStyle=orthogonalEdgeStyle;rounded=0;orthogonalLoop=1;jettySize=auto;html=1;entryX=0;entryY=0.5;entryDx=0;entryDy=0;endArrow=none;" edge="1" parent="1" source="ZuxY4mzKr3RIMmNPdpkf-1" target="ZuxY4mzKr3RIMmNPdpkf-32">
          <mxGeometry relative="1" as="geometry">
            <mxPoint x="70" y="220" as="sourcePoint" />
            <mxPoint x="160" y="220" as="targetPoint" />
          </mxGeometry>
        </mxCell>
        <mxCell id="ZuxY4mzKr3RIMmNPdpkf-33" value="0" style="text;html=1;align=center;verticalAlign=middle;resizable=0;points=[];autosize=1;strokeColor=none;fillColor=none;" vertex="1" parent="1">
          <mxGeometry x="120" y="430" width="20" height="20" as="geometry" />
        </mxCell>
        <mxCell id="ZuxY4mzKr3RIMmNPdpkf-50" value="" style="edgeStyle=orthogonalEdgeStyle;rounded=0;orthogonalLoop=1;jettySize=auto;html=1;entryX=0;entryY=0.5;entryDx=0;entryDy=0;endArrow=none;" edge="1" parent="1" source="ZuxY4mzKr3RIMmNPdpkf-1" target="ZuxY4mzKr3RIMmNPdpkf-33">
          <mxGeometry relative="1" as="geometry">
            <mxPoint x="70" y="220" as="sourcePoint" />
            <mxPoint x="160" y="320" as="targetPoint" />
          </mxGeometry>
        </mxCell>
        <mxCell id="ZuxY4mzKr3RIMmNPdpkf-34" value="&lt;div&gt;4&lt;/div&gt;" style="text;html=1;align=center;verticalAlign=middle;resizable=0;points=[];autosize=1;strokeColor=none;fillColor=none;" vertex="1" parent="1">
          <mxGeometry x="300" y="55" width="20" height="20" as="geometry" />
        </mxCell>
        <mxCell id="ZuxY4mzKr3RIMmNPdpkf-51" value="" style="edgeStyle=orthogonalEdgeStyle;rounded=0;orthogonalLoop=1;jettySize=auto;html=1;entryX=0;entryY=0.5;entryDx=0;entryDy=0;endArrow=none;" edge="1" parent="1" source="ZuxY4mzKr3RIMmNPdpkf-2" target="ZuxY4mzKr3RIMmNPdpkf-34">
          <mxGeometry relative="1" as="geometry">
            <mxPoint x="240" y="120" as="sourcePoint" />
            <mxPoint x="340" y="65" as="targetPoint" />
          </mxGeometry>
        </mxCell>
        <mxCell id="ZuxY4mzKr3RIMmNPdpkf-35" value="&lt;div&gt;4&lt;/div&gt;" style="text;html=1;align=center;verticalAlign=middle;resizable=0;points=[];autosize=1;strokeColor=none;fillColor=none;" vertex="1" parent="1">
          <mxGeometry x="300" y="160" width="20" height="20" as="geometry" />
        </mxCell>
        <mxCell id="ZuxY4mzKr3RIMmNPdpkf-52" value="" style="edgeStyle=orthogonalEdgeStyle;rounded=0;orthogonalLoop=1;jettySize=auto;html=1;entryX=0;entryY=0.75;entryDx=0;entryDy=0;endArrow=none;" edge="1" parent="1" source="ZuxY4mzKr3RIMmNPdpkf-2" target="ZuxY4mzKr3RIMmNPdpkf-35">
          <mxGeometry relative="1" as="geometry">
            <mxPoint x="240" y="120" as="sourcePoint" />
            <mxPoint x="340" y="167.5" as="targetPoint" />
          </mxGeometry>
        </mxCell>
        <mxCell id="ZuxY4mzKr3RIMmNPdpkf-37" value="&lt;div&gt;6&lt;/div&gt;" style="text;html=1;align=center;verticalAlign=middle;resizable=0;points=[];autosize=1;strokeColor=none;fillColor=none;" vertex="1" parent="1">
          <mxGeometry x="480" y="55" width="20" height="20" as="geometry" />
        </mxCell>
        <mxCell id="ZuxY4mzKr3RIMmNPdpkf-53" value="" style="edgeStyle=orthogonalEdgeStyle;rounded=0;orthogonalLoop=1;jettySize=auto;html=1;entryX=0;entryY=0.5;entryDx=0;entryDy=0;endArrow=none;" edge="1" parent="1" source="ZuxY4mzKr3RIMmNPdpkf-6" target="ZuxY4mzKr3RIMmNPdpkf-37">
          <mxGeometry relative="1" as="geometry">
            <mxPoint x="410" y="65" as="sourcePoint" />
            <mxPoint x="530" y="65" as="targetPoint" />
          </mxGeometry>
        </mxCell>
        <mxCell id="ZuxY4mzKr3RIMmNPdpkf-41" value="10" style="text;html=1;align=center;verticalAlign=middle;resizable=0;points=[];autosize=1;strokeColor=none;fillColor=none;" vertex="1" parent="1">
          <mxGeometry x="880" y="430" width="30" height="20" as="geometry" />
        </mxCell>
        <mxCell id="ZuxY4mzKr3RIMmNPdpkf-65" value="" style="edgeStyle=orthogonalEdgeStyle;rounded=0;orthogonalLoop=1;jettySize=auto;html=1;entryX=1;entryY=0.5;entryDx=0;entryDy=0;endArrow=none;" edge="1" parent="1" source="ZuxY4mzKr3RIMmNPdpkf-10" target="ZuxY4mzKr3RIMmNPdpkf-41">
          <mxGeometry relative="1" as="geometry">
            <mxPoint x="675" y="65" as="sourcePoint" />
            <mxPoint x="780" y="440" as="targetPoint" />
          </mxGeometry>
        </mxCell>
        <mxCell id="ZuxY4mzKr3RIMmNPdpkf-66" value="6" style="text;html=1;align=center;verticalAlign=middle;resizable=0;points=[];autosize=1;strokeColor=none;fillColor=none;" vertex="1" parent="1">
          <mxGeometry x="480" y="130" width="20" height="20" as="geometry" />
        </mxCell>
        <mxCell id="ZuxY4mzKr3RIMmNPdpkf-67" value="" style="edgeStyle=orthogonalEdgeStyle;rounded=0;orthogonalLoop=1;jettySize=auto;html=1;entryX=0;entryY=0.5;entryDx=0;entryDy=0;endArrow=none;" edge="1" parent="1" source="ZuxY4mzKr3RIMmNPdpkf-6" target="ZuxY4mzKr3RIMmNPdpkf-66">
          <mxGeometry relative="1" as="geometry">
            <mxPoint x="410" y="65" as="sourcePoint" />
            <mxPoint x="480" y="275" as="targetPoint" />
          </mxGeometry>
        </mxCell>
        <mxCell id="ZuxY4mzKr3RIMmNPdpkf-69" value="7" style="text;html=1;align=center;verticalAlign=middle;resizable=0;points=[];autosize=1;strokeColor=none;fillColor=none;" vertex="1" parent="1">
          <mxGeometry x="425" y="500" width="20" height="20" as="geometry" />
        </mxCell>
        <mxCell id="ZuxY4mzKr3RIMmNPdpkf-70" value="" style="edgeStyle=orthogonalEdgeStyle;rounded=0;orthogonalLoop=1;jettySize=auto;html=1;endArrow=none;" edge="1" parent="1" source="ZuxY4mzKr3RIMmNPdpkf-9" target="ZuxY4mzKr3RIMmNPdpkf-69">
          <mxGeometry relative="1" as="geometry">
            <mxPoint x="420" y="155" as="sourcePoint" />
            <mxPoint x="710" y="465" as="targetPoint" />
            <Array as="points">
              <mxPoint x="430" y="155" />
            </Array>
          </mxGeometry>
        </mxCell>
        <mxCell id="ZuxY4mzKr3RIMmNPdpkf-71" value="3" style="text;html=1;align=center;verticalAlign=middle;resizable=0;points=[];autosize=1;strokeColor=none;fillColor=none;" vertex="1" parent="1">
          <mxGeometry x="940" y="265" width="20" height="20" as="geometry" />
        </mxCell>
        <mxCell id="ZuxY4mzKr3RIMmNPdpkf-72" value="" style="edgeStyle=orthogonalEdgeStyle;rounded=0;orthogonalLoop=1;jettySize=auto;html=1;endArrow=none;" edge="1" parent="1" source="ZuxY4mzKr3RIMmNPdpkf-27" target="ZuxY4mzKr3RIMmNPdpkf-71">
          <mxGeometry relative="1" as="geometry">
            <mxPoint x="780" y="275" as="sourcePoint" />
            <mxPoint x="990" y="275" as="targetPoint" />
          </mxGeometry>
        </mxCell>
        <mxCell id="ZuxY4mzKr3RIMmNPdpkf-73" value="0" style="text;html=1;align=center;verticalAlign=middle;resizable=0;points=[];autosize=1;strokeColor=none;fillColor=none;" vertex="1" parent="1">
          <mxGeometry y="240" width="20" height="20" as="geometry" />
        </mxCell>
        <mxCell id="ZuxY4mzKr3RIMmNPdpkf-74" value="0" style="text;html=1;align=center;verticalAlign=middle;resizable=0;points=[];autosize=1;strokeColor=none;fillColor=none;" vertex="1" parent="1">
          <mxGeometry x="25" y="240" width="20" height="20" as="geometry" />
        </mxCell>
        <mxCell id="ZuxY4mzKr3RIMmNPdpkf-75" value="0" style="text;html=1;align=center;verticalAlign=middle;resizable=0;points=[];autosize=1;strokeColor=none;fillColor=none;" vertex="1" parent="1">
          <mxGeometry x="170" y="140" width="20" height="20" as="geometry" />
        </mxCell>
        <mxCell id="ZuxY4mzKr3RIMmNPdpkf-76" value="0" style="text;html=1;align=center;verticalAlign=middle;resizable=0;points=[];autosize=1;strokeColor=none;fillColor=none;" vertex="1" parent="1">
          <mxGeometry x="160" y="240" width="20" height="20" as="geometry" />
        </mxCell>
        <mxCell id="ZuxY4mzKr3RIMmNPdpkf-77" value="0" style="text;html=1;align=center;verticalAlign=middle;resizable=0;points=[];autosize=1;strokeColor=none;fillColor=none;" vertex="1" parent="1">
          <mxGeometry x="180" y="460" width="20" height="20" as="geometry" />
        </mxCell>
        <mxCell id="ZuxY4mzKr3RIMmNPdpkf-78" value="4" style="text;html=1;align=center;verticalAlign=middle;resizable=0;points=[];autosize=1;strokeColor=none;fillColor=none;" vertex="1" parent="1">
          <mxGeometry x="340" y="90" width="20" height="20" as="geometry" />
        </mxCell>
        <mxCell id="ZuxY4mzKr3RIMmNPdpkf-79" value="4" style="text;html=1;align=center;verticalAlign=middle;resizable=0;points=[];autosize=1;strokeColor=none;fillColor=none;" vertex="1" parent="1">
          <mxGeometry x="360" y="180" width="20" height="20" as="geometry" />
        </mxCell>
        <mxCell id="ZuxY4mzKr3RIMmNPdpkf-81" value="4" style="text;html=1;align=center;verticalAlign=middle;resizable=0;points=[];autosize=1;strokeColor=none;fillColor=none;" vertex="1" parent="1">
          <mxGeometry x="390" y="265" width="20" height="20" as="geometry" />
        </mxCell>
        <mxCell id="ZuxY4mzKr3RIMmNPdpkf-82" value="" style="edgeStyle=orthogonalEdgeStyle;rounded=0;orthogonalLoop=1;jettySize=auto;html=1;entryX=0;entryY=0.5;entryDx=0;entryDy=0;endArrow=none;" edge="1" parent="1" source="ZuxY4mzKr3RIMmNPdpkf-3" target="ZuxY4mzKr3RIMmNPdpkf-81">
          <mxGeometry relative="1" as="geometry">
            <mxPoint x="240" y="220" as="sourcePoint" />
            <mxPoint x="480" y="275" as="targetPoint" />
          </mxGeometry>
        </mxCell>
        <mxCell id="ZuxY4mzKr3RIMmNPdpkf-83" value="10" style="text;html=1;align=center;verticalAlign=middle;resizable=0;points=[];autosize=1;strokeColor=none;fillColor=none;" vertex="1" parent="1">
          <mxGeometry x="485" y="300" width="30" height="20" as="geometry" />
        </mxCell>
        <mxCell id="ZuxY4mzKr3RIMmNPdpkf-84" value="4" style="text;html=1;align=center;verticalAlign=middle;resizable=0;points=[];autosize=1;strokeColor=none;fillColor=none;" vertex="1" parent="1">
          <mxGeometry x="580" y="210" width="20" height="20" as="geometry" />
        </mxCell>
        <mxCell id="ZuxY4mzKr3RIMmNPdpkf-85" value="" style="edgeStyle=orthogonalEdgeStyle;rounded=0;orthogonalLoop=1;jettySize=auto;html=1;endArrow=none;" edge="1" parent="1" source="ZuxY4mzKr3RIMmNPdpkf-3" target="ZuxY4mzKr3RIMmNPdpkf-84">
          <mxGeometry relative="1" as="geometry">
            <mxPoint x="240" y="220" as="sourcePoint" />
            <mxPoint x="640" y="90" as="targetPoint" />
          </mxGeometry>
        </mxCell>
        <mxCell id="ZuxY4mzKr3RIMmNPdpkf-86" value="10" style="text;html=1;align=center;verticalAlign=middle;resizable=0;points=[];autosize=1;strokeColor=none;fillColor=none;" vertex="1" parent="1">
          <mxGeometry x="600" y="90" width="30" height="20" as="geometry" />
        </mxCell>
        <mxCell id="ZuxY4mzKr3RIMmNPdpkf-87" value="10" style="text;html=1;align=center;verticalAlign=middle;resizable=0;points=[];autosize=1;strokeColor=none;fillColor=none;" vertex="1" parent="1">
          <mxGeometry x="730" y="340" width="30" height="20" as="geometry" />
        </mxCell>
        <mxCell id="ZuxY4mzKr3RIMmNPdpkf-88" value="" style="edgeStyle=orthogonalEdgeStyle;rounded=0;orthogonalLoop=1;jettySize=auto;html=1;exitX=0.5;exitY=0;exitDx=0;exitDy=0;endArrow=none;" edge="1" parent="1" source="ZuxY4mzKr3RIMmNPdpkf-23" target="ZuxY4mzKr3RIMmNPdpkf-87">
          <mxGeometry relative="1" as="geometry">
            <mxPoint x="745" y="415" as="sourcePoint" />
            <mxPoint x="745" y="300" as="targetPoint" />
          </mxGeometry>
        </mxCell>
        <mxCell id="ZuxY4mzKr3RIMmNPdpkf-89" value="20" style="text;html=1;align=center;verticalAlign=middle;resizable=0;points=[];autosize=1;strokeColor=none;fillColor=none;" vertex="1" parent="1">
          <mxGeometry x="720" y="465" width="30" height="20" as="geometry" />
        </mxCell>
        <mxCell id="ZuxY4mzKr3RIMmNPdpkf-90" value="34" style="text;html=1;align=center;verticalAlign=middle;resizable=0;points=[];autosize=1;strokeColor=none;fillColor=none;" vertex="1" parent="1">
          <mxGeometry x="700" y="300" width="30" height="20" as="geometry" />
        </mxCell>
        <mxCell id="ZuxY4mzKr3RIMmNPdpkf-91" value="37" style="text;html=1;align=center;verticalAlign=middle;resizable=0;points=[];autosize=1;strokeColor=none;fillColor=none;" vertex="1" parent="1">
          <mxGeometry x="980" y="300" width="30" height="20" as="geometry" />
        </mxCell>
        <mxCell id="ZuxY4mzKr3RIMmNPdpkf-92" value="34" style="text;html=1;align=center;verticalAlign=middle;resizable=0;points=[];autosize=1;strokeColor=none;fillColor=none;" vertex="1" parent="1">
          <mxGeometry x="750" y="300" width="30" height="20" as="geometry" />
        </mxCell>
        <mxCell id="ZuxY4mzKr3RIMmNPdpkf-93" value="10" style="text;html=1;align=center;verticalAlign=middle;resizable=0;points=[];autosize=1;strokeColor=none;fillColor=none;" vertex="1" parent="1">
          <mxGeometry x="510" y="300" width="30" height="20" as="geometry" />
        </mxCell>
        <mxCell id="ZuxY4mzKr3RIMmNPdpkf-94" value="24" style="text;html=1;align=center;verticalAlign=middle;resizable=0;points=[];autosize=1;strokeColor=none;fillColor=none;" vertex="1" parent="1">
          <mxGeometry x="750" y="465" width="30" height="20" as="geometry" />
        </mxCell>
        <mxCell id="ZuxY4mzKr3RIMmNPdpkf-95" value="14" style="text;html=1;align=center;verticalAlign=middle;resizable=0;points=[];autosize=1;strokeColor=none;fillColor=none;" vertex="1" parent="1">
          <mxGeometry x="640" y="90" width="30" height="20" as="geometry" />
        </mxCell>
        <mxCell id="ZuxY4mzKr3RIMmNPdpkf-96" value="4" style="text;html=1;align=center;verticalAlign=middle;resizable=0;points=[];autosize=1;strokeColor=none;fillColor=none;" vertex="1" parent="1">
          <mxGeometry x="385" y="90" width="20" height="20" as="geometry" />
        </mxCell>
        <mxCell id="ZuxY4mzKr3RIMmNPdpkf-97" value="0" style="text;html=1;align=center;verticalAlign=middle;resizable=0;points=[];autosize=1;strokeColor=none;fillColor=none;" vertex="1" parent="1">
          <mxGeometry x="205" y="140" width="20" height="20" as="geometry" />
        </mxCell>
        <mxCell id="ZuxY4mzKr3RIMmNPdpkf-98" value="&lt;div&gt;17&lt;/div&gt;" style="text;html=1;align=center;verticalAlign=middle;resizable=0;points=[];autosize=1;strokeColor=none;fillColor=none;" vertex="1" parent="1">
          <mxGeometry x="375" y="180" width="30" height="20" as="geometry" />
        </mxCell>
        <mxCell id="ZuxY4mzKr3RIMmNPdpkf-99" value="6" style="text;html=1;align=center;verticalAlign=middle;resizable=0;points=[];autosize=1;strokeColor=none;fillColor=none;" vertex="1" parent="1">
          <mxGeometry x="195" y="240" width="20" height="20" as="geometry" />
        </mxCell>
        <mxCell id="ZuxY4mzKr3RIMmNPdpkf-101" value="12" style="text;html=1;align=center;verticalAlign=middle;resizable=0;points=[];autosize=1;strokeColor=none;fillColor=none;" vertex="1" parent="1">
          <mxGeometry x="210" y="460" width="30" height="20" as="geometry" />
        </mxCell>
        <mxCell id="ZuxY4mzKr3RIMmNPdpkf-102" value="37" style="text;html=1;align=center;verticalAlign=middle;resizable=0;points=[];autosize=1;strokeColor=none;fillColor=none;" vertex="1" parent="1">
          <mxGeometry x="1030" y="300" width="30" height="20" as="geometry" />
        </mxCell>
        <mxCell id="ZuxY4mzKr3RIMmNPdpkf-103" value="A-B-F-I" style="text;html=1;align=center;verticalAlign=middle;resizable=0;points=[];autosize=1;strokeColor=none;fillColor=none;" vertex="1" parent="1">
          <mxGeometry x="35" y="490" width="50" height="20" as="geometry" />
        </mxCell>
      </root>
    </mxGraphModel>
  </diagram>
</mxfile>
